# xmcd
# Copyright (C) 1995-1998 Ti Kan
#
# Track frame offsets:
#       150
#       17334
#       33772
#       43112
#       54058
#       70807
#       87614
#       98927
#       108688
#
# Disc length: 1608 seconds
#
# Revision: 0
# Processed by: cddbd v1.5.2PL0 Copyright (c) Steve Scherf et al.
# Submitted via: CD-Import v1.0
#
DISCID=6b064609
DTITLE=Vayo - Fantasías Y Dulces Sueños
DYEAR=2008
DGENRE=
TTITLE0=Caballito Blanco
TTITLE1=Luciana
TTITLE2=Pavana De Los Monos
TTITLE3=Luz En El Cielo
TTITLE4=Lilisol
TTITLE5=Minuet De Los Elefantes
TTITLE6=El Arbol Y Sus Flores
TTITLE7=Francesca
TTITLE8=La Niña Y El Ave
EXTD=
EXTT0=
EXTT1=
EXTT2=
EXTT3=
EXTT4=
EXTT5=
EXTT6=
EXTT7=
EXTT8=
PLAYORDER=
